<?xml version="1.0" standalone="no"?>
<!DOCTYPE svg PUBLIC "-//W3C//DTD SVG 20010904//EN"
 "http://www.w3.org/TR/2001/REC-SVG-20010904/DTD/svg10.dtd">
<svg version="1.0" xmlns="http://www.w3.org/2000/svg"
 width="512.000000pt" height="512.000000pt" viewBox="0 0 512.000000 512.000000"
 preserveAspectRatio="xMidYMid meet">

<g transform="translate(0.000000,512.000000) scale(0.100000,-0.100000)"
fill="#000000" stroke="none">
<path d="M800 5113 c-48 -19 -279 -159 -302 -184 -22 -23 -28 -39 -28 -76 0
-43 27 -94 366 -681 201 -349 364 -635 362 -636 -2 -2 -32 -22 -68 -46 -95
-64 -200 -170 -200 -202 0 -40 36 -78 74 -78 27 0 48 13 107 66 97 87 143 118
244 165 113 52 229 80 356 86 142 7 227 -8 296 -53 120 -80 242 -228 316 -381
l34 -71 -29 -86 c-48 -144 -73 -363 -47 -419 24 -52 87 -59 129 -15 16 18 20
35 20 94 0 458 329 841 794 924 96 18 289 7 385 -20 339 -96 590 -357 673
-697 24 -103 27 -298 5 -398 l-13 -60 -207 -3 -207 -2 0 94 c0 113 -14 140
-74 140 -75 0 -70 38 -76 -648 -5 -586 -6 -615 -24 -635 -24 -27 -70 -27 -96
-1 -19 19 -20 33 -20 248 0 125 -5 243 -10 263 -46 164 -250 224 -369 107 -52
-51 -64 -84 -71 -190 -5 -74 -10 -102 -25 -117 -23 -27 -69 -27 -95 -1 -19 19
-20 33 -20 345 0 330 -3 364 -39 382 -9 4 -484 10 -1056 13 l-1039 5 -8 35
c-36 164 -27 352 23 499 48 139 52 156 46 183 -9 33 -58 55 -95 42 -19 -6 -36
-26 -54 -64 -85 -170 -119 -425 -83 -625 8 -43 13 -80 12 -80 -1 -1 -20 -7
-43 -13 -47 -14 -127 -80 -150 -123 -37 -72 -35 -186 4 -249 51 -82 116 -121
215 -128 37 -3 67 -6 67 -8 0 -31 337 -1621 350 -1651 25 -58 92 -118 156
-143 54 -20 71 -20 1274 -20 1203 0 1220 0 1274 20 64 25 131 85 156 143 13
30 350 1620 350 1651 0 2 30 5 68 8 98 7 163 46 214 128 39 63 41 177 4 249
-24 45 -105 111 -154 124 -36 10 -42 15 -38 32 35 141 32 354 -8 510 -92 356
-371 653 -718 765 l-63 20 3 118 c9 308 -101 584 -319 802 -141 141 -303 233
-508 288 -85 22 -116 26 -261 26 -181 0 -247 -12 -406 -73 -281 -108 -518
-355 -624 -650 -19 -50 -26 -60 -34 -49 -6 9 -135 230 -286 493 -248 429 -279
479 -312 496 -37 19 -69 23 -98 12z m84 -246 l28 -54 -67 -117 c-37 -64 -69
-115 -71 -114 -7 8 -144 251 -144 256 0 4 44 32 98 63 111 64 102 66 156 -34z
m1901 -155 c101 -29 151 -48 224 -88 307 -169 499 -499 489 -840 l-3 -99 -116
-1 c-301 -4 -546 -99 -750 -291 l-69 -65 -69 65 c-205 193 -449 288 -745 289
l-129 0 6 142 c4 112 10 159 31 229 108 362 403 619 781 680 67 11 281 -2 350
-21z m-1669 -346 c-16 -28 -46 -82 -68 -120 l-40 -68 -55 93 c-87 149 -87 148
-73 178 6 14 37 68 67 119 l55 94 71 -123 71 -123 -28 -50z m188 -227 c36 -64
66 -121 66 -127 0 -10 -69 -133 -117 -211 -14 -23 -16 -21 -84 95 -38 66 -69
123 -69 127 0 10 131 239 135 235 1 -2 32 -55 69 -119z m166 -383 l0 -104 -62
-21 c-70 -24 -78 -25 -78 -12 0 9 132 241 137 241 2 0 3 -47 3 -104z m1350
-1681 l0 -105 -1060 0 c-1145 0 -1100 -2 -1127 52 -25 49 -19 93 16 129 l29
29 1071 0 1071 0 0 -105z m1651 76 c50 -51 36 -137 -28 -170 -14 -7 -115 -11
-302 -11 l-281 0 0 105 0 105 291 0 291 0 29 -29z m-1649 -443 c5 -127 18
-166 69 -217 90 -91 243 -86 324 11 42 50 55 90 55 172 0 41 5 86 11 100 20
44 85 52 116 15 7 -9 12 -97 15 -259 3 -227 5 -248 25 -285 43 -80 115 -126
196 -126 84 0 161 40 192 102 l16 29 114 0 c115 0 115 0 110 -22 -3 -13 -23
-113 -46 -223 -22 -110 -42 -208 -45 -217 -5 -17 -80 -18 -1304 -20 -1284 -3
-1300 -3 -1319 -23 -33 -34 -36 -68 -8 -101 l25 -29 1199 -3 1199 -2 -41 -198
c-23 -108 -49 -212 -58 -230 l-18 -32 -1152 2 c-1082 3 -1155 4 -1180 21 -15
9 -33 27 -41 40 -13 20 -72 285 -182 819 -19 95 -38 183 -41 195 l-5 23 1079
2 c1172 3 1103 0 1124 57 12 29 -4 75 -29 88 -10 4 -509 10 -1111 13 l-1095 5
-38 185 c-20 102 -38 193 -38 203 0 16 51 17 939 17 l938 0 5 -112z m1188 98
c0 -15 -67 -348 -76 -378 -4 -13 -16 -18 -40 -18 l-34 0 0 205 0 205 75 0 c58
0 75 -3 75 -14z"/>
<path d="M2089 4371 c-18 -14 -23 -31 -27 -78 -4 -52 -1 -63 20 -88 18 -21 34
-28 58 -28 50 0 70 31 70 107 0 52 -4 66 -23 84 -28 27 -67 28 -98 3z"/>
<path d="M2518 4380 c-42 -25 -47 -149 -7 -186 10 -9 33 -17 49 -17 41 0 68
28 76 78 14 99 -48 165 -118 125z"/>
<path d="M2932 4367 c-29 -31 -31 -133 -4 -168 28 -33 78 -30 110 6 21 25 24
36 20 88 -4 47 -9 64 -27 78 -32 26 -73 24 -99 -4z"/>
<path d="M2299 4001 c-21 -17 -24 -28 -24 -85 0 -54 4 -69 22 -87 27 -27 75
-29 103 -4 29 26 29 146 0 175 -25 25 -71 26 -101 1z"/>
<path d="M2720 4000 c-29 -29 -29 -149 0 -175 28 -25 76 -23 103 4 18 18 22
33 22 87 0 57 -3 68 -24 85 -30 25 -76 24 -101 -1z"/>
</g>
</svg>
